<svg id="visual" viewBox="0 0 540 960" width="540" height="960" xmlns="http://www.w3.org/2000/svg" xmlns:xlink="http://www.w3.org/1999/xlink" version="1.1"><rect x="0" y="0" width="540" height="960" fill="#002233"></rect><path d="M232 0L227.3 26.7C222.7 53.3 213.3 106.7 196.7 160C180 213.3 156 266.7 141.8 320C127.7 373.3 123.3 426.7 122.8 480C122.3 533.3 125.7 586.7 140.3 640C155 693.3 181 746.7 186.5 800C192 853.3 177 906.7 169.5 933.3L162 960L0 960L0 933.3C0 906.7 0 853.3 0 800C0 746.7 0 693.3 0 640C0 586.7 0 533.3 0 480C0 426.7 0 373.3 0 320C0 266.7 0 213.3 0 160C0 106.7 0 53.3 0 26.7L0 0Z" fill="#0066FF" stroke-linecap="round" stroke-linejoin="miter"></path></svg>